<svg width="19" height="18" viewBox="0 0 19 18" fill="none" xmlns="http://www.w3.org/2000/svg">
<g clip-path="url(#clip0_0_741)">
<path d="M18.5 3.91583C18.5 3.00247 17.7569 2.25937 16.8435 2.25937H2.15646C1.24328 2.2594 0.500316 3.00215 0.5 3.91611V3.91639V14.0836C0.5 15.0084 1.25066 15.7406 2.15703 15.7406H16.8429C17.7677 15.7406 18.5 14.99 18.5 14.0836V3.91639C18.5 3.91632 18.5 3.91625 18.5 3.91618C18.5 3.91608 18.5 3.91597 18.5 3.91583ZM2.15646 3.3141H16.8435C17.1753 3.3141 17.4453 3.58406 17.4453 3.91671C17.4453 4.09348 17.3575 4.25755 17.2101 4.35571L9.83416 9.27324C9.6312 9.40856 9.36887 9.4086 9.16587 9.27324C9.16587 9.27324 1.78971 4.3556 1.78985 4.35571C1.78989 4.35574 1.78975 4.35564 1.78971 4.3556C1.64255 4.25755 1.55469 4.09348 1.55469 3.91583C1.55469 3.58403 1.82466 3.3141 2.15646 3.3141ZM16.843 14.6859H2.15703C1.8287 14.6859 1.55469 14.4205 1.55469 14.0836V5.46655L8.5808 10.1507C8.86001 10.3369 9.18001 10.43 9.5 10.43C9.82003 10.43 10.1401 10.3369 10.4192 10.1507L17.4453 5.46655V14.0836C17.4453 14.4119 17.1798 14.6859 16.843 14.6859Z" fill="white"/>
</g>
<defs>
<clipPath id="clip0_0_741">
<rect width="18" height="18" fill="white" transform="translate(0.5)"/>
</clipPath>
</defs>
</svg>
