<svg width="21" height="20" viewBox="0 0 21 20" fill="none" xmlns="http://www.w3.org/2000/svg">
<path d="M8.57999 11.04C8.51999 11.04 7.19999 11.04 6.59999 11.04C6.27999 11.04 6.17999 10.92 6.17999 10.62C6.17999 9.81999 6.17999 8.99999 6.17999 8.19999C6.17999 7.87999 6.29999 7.77999 6.59999 7.77999H8.57999C8.57999 7.71999 8.57999 6.55999 8.57999 6.01999C8.57999 5.21999 8.71999 4.45999 9.11999 3.75999C9.53999 3.03999 10.14 2.55999 10.9 2.27999C11.4 2.09999 11.9 2.01999 12.44 2.01999H14.4C14.68 2.01999 14.8 2.13999 14.8 2.41999V4.69999C14.8 4.97999 14.68 5.09999 14.4 5.09999C13.86 5.09999 13.32 5.09999 12.78 5.11999C12.24 5.11999 11.96 5.37999 11.96 5.93999C11.94 6.53999 11.96 7.11999 11.96 7.73999H14.28C14.6 7.73999 14.72 7.85999 14.72 8.17999V10.6C14.72 10.92 14.62 11.02 14.28 11.02C13.56 11.02 12.02 11.02 11.96 11.02V17.54C11.96 17.88 11.86 18 11.5 18C10.66 18 9.83999 18 8.99999 18C8.69999 18 8.57999 17.88 8.57999 17.58C8.57999 15.48 8.57999 11.1 8.57999 11.04Z" fill="white"/>
</svg>
