<svg width="19" height="18" viewBox="0 0 19 18" fill="none" xmlns="http://www.w3.org/2000/svg">
<g clip-path="url(#clip0_0_755)">
<path d="M13.5325 0H5.46721C2.72829 0 0.5 2.2284 0.5 4.96732V13.0326C0.5 15.7716 2.72829 17.9999 5.46721 17.9999H13.5325C16.2716 17.9999 18.4999 15.7715 18.4999 13.0326V4.96732C18.5 2.2284 16.2716 0 13.5325 0ZM16.903 13.0326C16.903 14.891 15.391 16.4029 13.5326 16.4029H5.46721C3.6089 16.403 2.09704 14.891 2.09704 13.0326V4.96732C2.09704 3.10901 3.6089 1.59704 5.46721 1.59704H13.5325C15.3909 1.59704 16.9029 3.10901 16.9029 4.96732V13.0326H16.903Z" fill="white"/>
<path d="M9.49993 4.36203C6.94244 4.36203 4.86182 6.44265 4.86182 9.00015C4.86182 11.5575 6.94244 13.6381 9.49993 13.6381C12.0574 13.6381 14.1381 11.5575 14.1381 9.00015C14.1381 6.44265 12.0574 4.36203 9.49993 4.36203ZM9.49993 12.0409C7.82315 12.0409 6.45885 10.6768 6.45885 9.00004C6.45885 7.32315 7.82304 5.95896 9.49993 5.95896C11.1768 5.95896 12.541 7.32315 12.541 9.00004C12.541 10.6768 11.1767 12.0409 9.49993 12.0409Z" fill="white"/>
<path d="M14.3325 3.00787C14.0248 3.00787 13.7226 3.13244 13.5053 3.3507C13.2869 3.5679 13.1614 3.87027 13.1614 4.17903C13.1614 4.48684 13.287 4.7891 13.5053 5.00736C13.7225 5.22456 14.0248 5.3502 14.3325 5.3502C14.6413 5.3502 14.9426 5.22456 15.1609 5.00736C15.3791 4.7891 15.5037 4.48673 15.5037 4.17903C15.5037 3.87027 15.3791 3.5679 15.1609 3.3507C14.9437 3.13244 14.6413 3.00787 14.3325 3.00787Z" fill="white"/>
</g>
<defs>
<clipPath id="clip0_0_755">
<rect width="18" height="18" fill="white" transform="translate(0.5)"/>
</clipPath>
</defs>
</svg>
